<?xml version="1.0" encoding="utf-8"?><!DOCTYPE svg PUBLIC "-//W3C//DTD SVG 1.1//EN" "http://www.w3.org/Graphics/SVG/1.1/DTD/svg11.dtd"><svg version="1.1" id="Layer_1" xmlns="http://www.w3.org/2000/svg" xmlns:xlink="http://www.w3.org/1999/xlink" x="0px" y="0px"
	 width="512px" height="512px" viewBox="0 0 512 512" style="enable-background:new 0 0 512 512;" xml:space="preserve"><style type="text/css"><![CDATA[
	.st0{fill:#F7CE20;}
	.st1{fill:#CFE6FF;}
	.st2{fill:#6F2A19;}
	.st3{fill:#A1B9D3;}
	.st4{fill:#0E3C6D;}
	.st5{fill:#DD5533;}
	.st6{fill:#4273A7;}
]]></style><rect class="st5" width="512" height="512"/><g><g id="MOUSE"><path class="st1" d="M404.9,199.3H228.9c-1.7-66.7,3.2-133.1,16-145.1c18.8-21.7,59.1-26.2,68.2-25.6v51.3c-2.6,0.4-6.6,1.5-8.7,4
			c-4.2,4-3.1,44.6,1.5,47.6c1.9,1.5,4.5,2.2,7.3,2.4v57.9h6.2v-58.3c3.7-0.6,6.8-1.8,7.8-2.8c4.7-3.8,4.2-43.8-0.4-48.1
			c-2-1.9-4.4-2.6-7.4-2.8V28.6c26.9,0.2,47.5,3,63.2,17.9C396.7,60.2,404.5,130.4,404.9,199.3z"/></g><path class="st0" d="M175.3,91.4c0,2.2,0,4.5,0,6.8h31c0-2.3,0-4.6,0-6.8H175.3z"/><path class="st0" d="M206.3,199.3h-31c-0.1-28-0.1-55.1-0.1-78.6h31.1C206.3,144.2,206.3,171.3,206.3,199.3z"/><path class="st2" d="M206.2,84.3c-0.1-25.9-0.4-42.6-0.9-43.5c-3.4-3.4-19.7-7.8-28.5,1.5c-0.7,1.7-1.1,17.6-1.4,42H206.2z"/><path class="st0" d="M206.3,113.5c0-2.8,0-5.5,0-8.1h-31c0,2.6,0,5.3,0,8.1H206.3z"/><g id="PEN"><g><path class="st4" d="M155.2,199.3h-7.6c-0.1-40.8-0.7-88.5-0.8-89.7c-0.1-1.9-13.2-2.3-14.3,0c-0.6,1.3-1.2,49-1.2,89.7h-12.5
				c0-58.8,0-128.4,0.1-130c1.5-2.2,33.1-2.9,36.2,0C155.3,71.1,155.3,140.6,155.2,199.3z"/><path class="st4" d="M151.4,64.1c0.8-2.8,1.1-13.5,0-21.1c-3.1-2.6-26.1-3.3-30.1,0c-1.3,4.3-0.8,18.7,0,21.1
				C129.4,62.7,147.3,63.2,151.4,64.1z"/></g></g><g><path class="st3" d="M147.5,199.3c0.1,30.4,0,57-0.8,57.4c-1.7,1.1-12.4,1.2-14.3,0c-0.8-0.5-1.1-27-1.2-57.4H90.7v257.1
			c0,0,135.1,35.7,170.7,40.5c36.3-9.1,167.2-40.9,167.2-40.9V199.3H147.5z"/><path class="st6" d="M146.8,256.7c0.7-0.5,0.8-27,0.8-57.4c-0.1-40.8-0.7-88.5-0.8-89.7c-0.1-1.9-13.2-2.3-14.3,0
			c-0.6,1.3-1.2,49-1.2,89.7c0,30.4,0.3,56.9,1.2,57.4C134.4,257.9,145.1,257.8,146.8,256.7z"/></g></g></svg>
